<svg width="960" height="580" viewBox="0 0 960 580" fill="none" xmlns="http://www.w3.org/2000/svg">
<rect width="960" height="580" fill="url(#paint0_linear_858_1426)"/>
<path d="M164.875 253.75L186.625 325H196.125L201.75 307.75L183.5 253.75H164.875ZM194.625 270.875L203.5 296.375H205.125L209 283.875L221.625 325H231.125L236.75 307.75L218.5 253.75H199.875L194.625 270.875ZM229.625 270.875L238.5 296.375H240.125L253.5 253.75H234.875L229.625 270.875ZM259.125 305.625V272.875C259.208 268.792 261.083 264.792 264.75 260.875C269.25 256.208 274.75 253.833 281.25 253.75V269.5C278.833 269.5 277.167 270.542 276.25 272.625C276 273.125 275.875 273.583 275.875 274V280.25H294.5V274.125C294.417 271.042 292.25 269.5 288 269.5V253.75C294.083 253.75 299.417 255.833 304 260C308 263.667 310.042 267.917 310.125 272.75V296.375H275.875V305.625C276.458 308.042 278.292 309.375 281.375 309.625V325C273.542 325 267.333 321.792 262.75 315.375C260.333 311.958 259.125 308.708 259.125 305.625ZM288 325V309.75C292.5 309.667 295.375 307.542 296.625 303.375L310.25 308.5C309 313.833 305.833 318.125 300.75 321.375C296.833 323.792 292.583 325 288 325ZM320.25 325V235.5H337.5V325H320.25ZM344.125 325V308.75H348.625C349.125 308.75 349.583 308.708 350 308.625C350.5 308.458 350.917 308.292 351.25 308.125C351.583 307.958 351.875 307.75 352.125 307.5C352.375 307.25 352.542 307 352.625 306.75C352.792 306.5 352.917 306.292 353 306.125C353.083 305.875 353.167 305.667 353.25 305.5V305.375V273.375C353.25 272.375 352.625 271.5 351.375 270.75C350.625 270.333 349.75 270.083 348.75 270H344.125V253.75H348.625C356.125 253.75 362 257.042 366.25 263.625C368.333 266.875 369.417 269.958 369.5 272.875V305.625C369.5 309.375 367.875 313.25 364.625 317.25C360.375 322.333 355.042 324.917 348.625 325H344.125ZM406.75 325V308.75C411.833 308.25 414.833 306.125 415.75 302.375C415.917 301.625 416 300.833 416 300C416 295 413.667 291.833 409 290.5C406.583 289.75 403.542 289.375 399.875 289.375V273.125C409.375 273.125 414.667 270.542 415.75 265.375C415.917 264.458 416 263.5 416 262.5C416 257.917 413.5 255.083 408.5 254C407.833 253.917 407.25 253.833 406.75 253.75V237.5C413.75 237.5 419.708 239.708 424.625 244.125C429.708 248.708 432.25 254.792 432.25 262.375C432.25 270.542 429.75 276.625 424.75 280.625C424.417 280.875 424.125 281.083 423.875 281.25C428.458 284.333 431.167 289.292 432 296.125C432.167 297.458 432.25 298.792 432.25 300.125C432.25 310.375 427.958 317.667 419.375 322C415.292 324 411.083 325 406.75 325ZM377 302.625L392.125 299.75C392.125 304.167 394 307.042 397.75 308.375C398.583 308.625 399.292 308.75 399.875 308.75V325C393.208 325 387.5 322.292 382.75 316.875C378.917 312.458 377 307.708 377 302.625ZM377 259.875C377 253.625 379.583 248.167 384.75 243.5C389.25 239.5 394.292 237.5 399.875 237.5V253.75C396.375 254.167 394 255.917 392.75 259C392.333 260.167 392.125 261.417 392.125 262.75L377 259.875ZM442.25 243.625C442.25 240.208 443.792 237.625 446.875 235.875C448.292 235.042 449.792 234.625 451.375 234.625C454.875 234.625 457.5 236.167 459.25 239.25C460 240.667 460.375 242.125 460.375 243.625C460.375 247.125 458.833 249.75 455.75 251.5C454.333 252.25 452.875 252.625 451.375 252.625C447.792 252.625 445.125 251.042 443.375 247.875C442.625 246.542 442.25 245.125 442.25 243.625ZM443.125 325V257.5H459.875V325H443.125ZM471.375 325V273.125C471.375 268.958 473.208 264.917 476.875 261C481.542 256.167 487.25 253.708 494 253.625V270.25C490.667 270.75 488.792 272.417 488.375 275.25V325H471.375ZM499.75 270.25V253.625C505.417 253.708 510.25 255.25 514.25 258.25C518.083 255.167 522.875 253.625 528.625 253.625V270.25C524.792 270.333 522.833 272 522.75 275.25V325H505.75V275.25C505.583 272 503.583 270.333 499.75 270.25ZM534.25 270.25V253.625C542.333 253.625 548.708 256.833 553.375 263.25C555.875 266.75 557.125 270.042 557.125 273.125V325H540.125V275.25C539.958 272 538 270.333 534.25 270.25ZM565 308.5C565 313.333 567.292 317.417 571.875 320.75C575.792 323.583 580.542 325 586.125 325V309.625C581.875 309.625 579.5 308.625 579 306.625C578.917 306.125 578.875 305.625 578.875 305.125V303.375C578.958 301.958 579.5 301 580.5 300.5C580.917 300.25 582.458 299.792 585.125 299.125C591.625 297.292 596 295.708 598.25 294.375V304.625C598.25 307.125 597.083 308.708 594.75 309.375C594.167 309.542 593.542 309.625 592.875 309.625V325C598.042 324.917 602.25 323.583 605.5 321C608.583 323.667 612.667 325 617.75 325V309.5C615.5 309.333 614.333 308 614.25 305.5V272.875C614.25 268.292 612.333 264.042 608.5 260.125C604.25 255.875 599 253.75 592.75 253.75V269.125C596.333 269.375 598.167 271 598.25 274V276.875C598.25 279.208 593.792 281.875 584.875 284.875C577.208 287.542 572.833 289.167 571.75 289.75C567.333 292.667 565.083 296.792 565 302.125V308.5ZM565.875 271.625L580.375 277.125C580.458 271.875 582.417 269.208 586.25 269.125V253.75C580.5 253.75 575.458 255.833 571.125 260C567.708 263.5 565.958 267.375 565.875 271.625ZM623.375 348.75L627.25 333.375H652C654.667 333.292 656.375 332.083 657.125 329.75C657.208 329.583 657.25 329.458 657.25 329.375V323.5C655.5 323.833 653.625 324 651.625 324V308.5C655.208 308.333 657.083 306.958 657.25 304.375V272.5C657.25 271.333 656.5 270.292 655 269.375C654 268.792 652.875 268.5 651.625 268.5V252.875C653.625 252.875 655.5 253.125 657.25 253.625V252.875H673.25V329.375C673.25 333.042 671.625 336.833 668.375 340.75C664.042 346 658.667 348.667 652.25 348.75H623.375ZM624.625 304.75V271.875C624.708 267.875 626.5 263.958 630 260.125C634.333 255.375 639.75 252.958 646.25 252.875V268.5C643.25 268.5 641.333 269.583 640.5 271.75C640.417 272 640.375 272.167 640.375 272.25V304.625C640.375 306.542 641.583 307.75 644 308.25C644.667 308.417 645.417 308.5 646.25 308.5V324C638.417 324 632.333 320.708 628 314.125C625.75 310.792 624.625 307.667 624.625 304.75ZM682.625 305.625V272.875C682.708 268.792 684.583 264.792 688.25 260.875C692.75 256.208 698.25 253.833 704.75 253.75V269.5C702.333 269.5 700.667 270.542 699.75 272.625C699.5 273.125 699.375 273.583 699.375 274V280.25H718V274.125C717.917 271.042 715.75 269.5 711.5 269.5V253.75C717.583 253.75 722.917 255.833 727.5 260C731.5 263.667 733.542 267.917 733.625 272.75V296.375H699.375V305.625C699.958 308.042 701.792 309.375 704.875 309.625V325C697.042 325 690.833 321.792 686.25 315.375C683.833 311.958 682.625 308.708 682.625 305.625ZM711.5 325V309.75C716 309.667 718.875 307.542 720.125 303.375L733.75 308.5C732.5 313.833 729.333 318.125 724.25 321.375C720.333 323.792 716.083 325 711.5 325ZM741 306.25L756.5 303.375C756.5 306.125 757.917 308.083 760.75 309.25C761.75 309.583 762.667 309.792 763.5 309.875V325.625C753.833 325.625 747.125 322.208 743.375 315.375C741.792 312.542 741 309.5 741 306.25ZM741.75 273.25C741.75 265.5 745.375 259.75 752.625 256C756.208 254.083 759.75 253.125 763.25 253.125V268.625C759.167 268.708 757.125 270.25 757.125 273.25C757.125 276.417 760.958 279.208 768.625 281.625C771.458 282.542 774.792 283.417 778.625 284.25C784.375 285.333 788.458 288.542 790.875 293.875C792.125 296.625 792.75 299.667 792.75 303C792.75 311.667 789.333 318.042 782.5 322.125C778.583 324.458 774.125 325.625 769.125 325.625V309.875C772.042 309.875 774.208 308.917 775.625 307C776.292 306.083 776.625 305.083 776.625 304C776.625 301.417 773.458 299.167 767.125 297.25C766.125 297 764.583 296.583 762.5 296C758.083 294.833 755.042 293.875 753.375 293.125C747.292 290.042 743.625 285.5 742.375 279.5C741.958 277.5 741.75 275.417 741.75 273.25ZM768.875 268.625L769 253.125C776.5 253.125 782.542 255.875 787.125 261.375C790.042 264.958 791.5 268.75 791.5 272.75L776.125 275.375C776.125 271.625 774.125 269.417 770.125 268.75C769.625 268.667 769.208 268.625 768.875 268.625Z" fill="white" fill-opacity="0.95"/>
<defs>
<linearGradient id="paint0_linear_858_1426" x1="480" y1="0" x2="480" y2="580" gradientUnits="userSpaceOnUse">
<stop stop-color="#36D1DC"/>
<stop offset="1" stop-color="#1C92D2"/>
</linearGradient>
</defs>
</svg>
