<svg width="480" height="480" viewBox="0 0 480 480" fill="none" xmlns="http://www.w3.org/2000/svg">
<rect width="480" height="480" fill="url(#paint0_linear_859_1426)"/>
<path d="M148.875 203.75L170.625 275H180.125L185.75 257.75L167.5 203.75H148.875ZM178.625 220.875L187.5 246.375H189.125L193 233.875L205.625 275H215.125L220.75 257.75L202.5 203.75H183.875L178.625 220.875ZM213.625 220.875L222.5 246.375H224.125L237.5 203.75H218.875L213.625 220.875ZM271.875 275V258.75C276.958 258.25 279.958 256.125 280.875 252.375C281.042 251.625 281.125 250.833 281.125 250C281.125 245 278.792 241.833 274.125 240.5C271.708 239.75 268.667 239.375 265 239.375V223.125C274.5 223.125 279.792 220.542 280.875 215.375C281.042 214.458 281.125 213.5 281.125 212.5C281.125 207.917 278.625 205.083 273.625 204C272.958 203.917 272.375 203.833 271.875 203.75V187.5C278.875 187.5 284.833 189.708 289.75 194.125C294.833 198.708 297.375 204.792 297.375 212.375C297.375 220.542 294.875 226.625 289.875 230.625C289.542 230.875 289.25 231.083 289 231.25C293.583 234.333 296.292 239.292 297.125 246.125C297.292 247.458 297.375 248.792 297.375 250.125C297.375 260.375 293.083 267.667 284.5 272C280.417 274 276.208 275 271.875 275ZM242.125 252.625L257.25 249.75C257.25 254.167 259.125 257.042 262.875 258.375C263.708 258.625 264.417 258.75 265 258.75V275C258.333 275 252.625 272.292 247.875 266.875C244.042 262.458 242.125 257.708 242.125 252.625ZM242.125 209.875C242.125 203.625 244.708 198.167 249.875 193.5C254.375 189.5 259.417 187.5 265 187.5V203.75C261.5 204.167 259.125 205.917 257.875 209C257.458 210.167 257.25 211.417 257.25 212.75L242.125 209.875ZM307.375 193.625C307.375 190.208 308.917 187.625 312 185.875C313.417 185.042 314.917 184.625 316.5 184.625C320 184.625 322.625 186.167 324.375 189.25C325.125 190.667 325.5 192.125 325.5 193.625C325.5 197.125 323.958 199.75 320.875 201.5C319.458 202.25 318 202.625 316.5 202.625C312.917 202.625 310.25 201.042 308.5 197.875C307.75 196.542 307.375 195.125 307.375 193.625ZM308.25 275V207.5H325V275H308.25Z" fill="white" fill-opacity="0.95"/>
<defs>
<linearGradient id="paint0_linear_859_1426" x1="240" y1="0" x2="240" y2="480" gradientUnits="userSpaceOnUse">
<stop stop-color="#36D1DC"/>
<stop offset="1" stop-color="#1C92D2"/>
</linearGradient>
</defs>
</svg>
